# xmcd
#
# Track frame offsets:
#	150
#	16659
#	33939
#	56364
#	69337
#	85791
#	101441
#	114498
#	134013
#	151232
#	170117
#	185919
#	197904
#	217565
#	235149
#	249984
#	269343
#	281927
#	296732
#	312645
#
# Disc length: 4445 seconds
#
# Revision: 1
# Processed by: cddbd v1.5.1PL2 Copyright (c) Steve Scherf et al.
# Submitted via: audiograbber 1.83.01
#
DISCID=22115b14
DTITLE=ACCIOLY NETTO - 20 SUPER SUCESSOS
DYEAR=1900
DGENRE=
TTITLE0=LEMBRANÇA DE UM BEIJO
TTITLE1=MINHA GATA
TTITLE2=ESPUMAS AO VENTO
TTITLE3=FORRÓ DAS CHINELINHAS
TTITLE4=CHORORÔ
TTITLE5=TRANCELIM
TTITLE6=NO NOSSO É REFRESCO
TTITLE7=ASAS DA ILUSÃO
TTITLE8=MEL E AVELOZ
TTITLE9=ME DÁ MEU CORAÇÃO
TTITLE10=SAUDADE DA BOAA
TTITLE11=GOSTO DE VOCÊ
TTITLE12=ME DIZ AMOR
TTITLE13=QUANDO BATE O CORAÇÃO
TTITLE14=O CÉU É LOGO ALI
TTITLE15=VENEZA, VENEZA
TTITLE16=TAPA DE AMOR
TTITLE17=QUE NEM EU
TTITLE18=CANÇÃO DA SAUDADE
TTITLE19=O TREM E O SOL
EXTD=
EXTT0=
EXTT1=
EXTT2=
EXTT3=
EXTT4=
EXTT5=
EXTT6=
EXTT7=
EXTT8=
EXTT9=
EXTT10=
EXTT11=
EXTT12=
EXTT13=
EXTT14=
EXTT15=
EXTT16=
EXTT17=
EXTT18=
EXTT19=
PLAYORDER=
